<svg viewBox="0 0 900 340" width="700" xmlns="http://www.w3.org/2000/svg">
  <defs>
    <linearGradient id="humanGrad" x1="0%" y1="0%" x2="100%" y2="100%">
      <stop offset="0%" style="stop-color:#dbeafe"/>
      <stop offset="100%" style="stop-color:#bfdbfe"/>
    </linearGradient>
    <linearGradient id="agentGrad" x1="0%" y1="0%" x2="100%" y2="100%">
      <stop offset="0%" style="stop-color:#d1fae5"/>
      <stop offset="100%" style="stop-color:#a7f3d0"/>
    </linearGradient>
    <linearGradient id="resourceGrad" x1="0%" y1="0%" x2="100%" y2="100%">
      <stop offset="0%" style="stop-color:#fed7aa"/>
      <stop offset="100%" style="stop-color:#fdba74"/>
    </linearGradient>
    <linearGradient id="authorityGrad" x1="0%" y1="0%" x2="100%" y2="100%">
      <stop offset="0%" style="stop-color:#e9d5ff"/>
      <stop offset="100%" style="stop-color:#d8b4fe"/>
    </linearGradient>
    <marker id="arrow" markerWidth="8" markerHeight="6" refX="7" refY="3" orient="auto">
      <polygon points="0 0, 8 3, 0 6" fill="#64748b"/>
    </marker>
    <marker id="arrowBlue" markerWidth="8" markerHeight="6" refX="7" refY="3" orient="auto">
      <polygon points="0 0, 8 3, 0 6" fill="#3b82f6"/>
    </marker>
  </defs>

  <!-- Background -->
  <rect width="900" height="340" fill="#fafafa"/>

  <!-- ========== LEFT PANEL: Traditional Model ========== -->
  <g transform="translate(0, 0)">
    <!-- Panel background -->
    <rect x="20" y="20" width="380" height="300" rx="8" fill="white" stroke="#e2e8f0" stroke-width="1"/>

    <!-- Title -->
    <text x="210" y="55" text-anchor="middle" font-family="system-ui, sans-serif" font-size="16" font-weight="700" fill="#1e293b">Traditional Model</text>

    <!-- Scientists -->
    <g transform="translate(110, 105)">
      <rect x="-45" y="-18" width="90" height="36" rx="6" fill="url(#humanGrad)" stroke="#93c5fd" stroke-width="1.5"/>
      <text x="0" y="5" text-anchor="middle" font-family="system-ui, sans-serif" font-size="13" fill="#1e40af">Scientist</text>
    </g>
    <g transform="translate(310, 105)">
      <rect x="-50" y="-18" width="100" height="36" rx="6" fill="url(#humanGrad)" stroke="#93c5fd" stroke-width="1.5"/>
      <text x="0" y="5" text-anchor="middle" font-family="system-ui, sans-serif" font-size="13" fill="#1e40af">Collaborator</text>
    </g>

    <!-- Resources -->
    <g transform="translate(70, 210)">
      <rect x="-40" y="-18" width="80" height="36" rx="6" fill="url(#resourceGrad)" stroke="#fb923c" stroke-width="1.5"/>
      <text x="0" y="5" text-anchor="middle" font-family="system-ui, sans-serif" font-size="13" fill="#c2410c">HPC</text>
    </g>
    <g transform="translate(210, 210)">
      <rect x="-40" y="-18" width="80" height="36" rx="6" fill="url(#resourceGrad)" stroke="#fb923c" stroke-width="1.5"/>
      <text x="0" y="5" text-anchor="middle" font-family="system-ui, sans-serif" font-size="13" fill="#c2410c">Storage</text>
    </g>
    <g transform="translate(350, 210)">
      <rect x="-45" y="-18" width="90" height="36" rx="6" fill="url(#resourceGrad)" stroke="#fb923c" stroke-width="1.5"/>
      <text x="0" y="5" text-anchor="middle" font-family="system-ui, sans-serif" font-size="13" fill="#c2410c">Instrument</text>
    </g>

    <!-- Direct connections (many arrows - the problem) -->
    <line x1="110" y1="123" x2="70" y2="192" stroke="#64748b" stroke-width="1.5" marker-end="url(#arrow)"/>
    <line x1="110" y1="123" x2="210" y2="192" stroke="#64748b" stroke-width="1.5" marker-end="url(#arrow)"/>
    <line x1="110" y1="123" x2="350" y2="192" stroke="#64748b" stroke-width="1.5" marker-end="url(#arrow)"/>
    <line x1="310" y1="123" x2="70" y2="192" stroke="#64748b" stroke-width="1.5" marker-end="url(#arrow)"/>
    <line x1="310" y1="123" x2="210" y2="192" stroke="#64748b" stroke-width="1.5" marker-end="url(#arrow)"/>
    <line x1="310" y1="123" x2="350" y2="192" stroke="#64748b" stroke-width="1.5" marker-end="url(#arrow)"/>

    <!-- Annotation -->
    <text x="210" y="275" text-anchor="middle" font-family="system-ui, sans-serif" font-size="12" font-style="italic" fill="#64748b">n users × m resources</text>
    <text x="210" y="295" text-anchor="middle" font-family="system-ui, sans-serif" font-size="12" font-style="italic" fill="#64748b">= O(nm) authorization relationships</text>
  </g>

  <!-- ========== CENTER: Transformation Arrow ========== -->
  <g transform="translate(450, 170)">
    <line x1="-30" y1="0" x2="25" y2="0" stroke="#94a3b8" stroke-width="3"/>
    <path d="M20,-8 L40,0 L20,8 Z" fill="#94a3b8"/>
    <text x="5" y="-20" text-anchor="middle" font-family="system-ui, sans-serif" font-size="11" fill="#64748b">autonomous</text>
    <text x="5" y="-7" text-anchor="middle" font-family="system-ui, sans-serif" font-size="11" fill="#64748b">agents</text>
  </g>

  <!-- ========== RIGHT PANEL: Resource Rights Model ========== -->
  <g transform="translate(500, 0)">
    <!-- Panel background -->
    <rect x="0" y="20" width="380" height="300" rx="8" fill="white" stroke="#e2e8f0" stroke-width="1"/>

    <!-- Title -->
    <text x="190" y="55" text-anchor="middle" font-family="system-ui, sans-serif" font-size="16" font-weight="700" fill="#1e293b">Resource Rights Model</text>

    <!-- Allocation Authority -->
    <g transform="translate(190, 85)">
      <rect x="-50" y="-16" width="100" height="32" rx="6" fill="url(#authorityGrad)" stroke="#a855f7" stroke-width="1.5"/>
      <text x="0" y="5" text-anchor="middle" font-family="system-ui, sans-serif" font-size="13" fill="#7e22ce">Allocation</text>
    </g>

    <!-- PI -->
    <g transform="translate(190, 145)">
      <rect x="-30" y="-16" width="60" height="32" rx="6" fill="url(#humanGrad)" stroke="#93c5fd" stroke-width="1.5"/>
      <text x="0" y="5" text-anchor="middle" font-family="system-ui, sans-serif" font-size="13" fill="#1e40af">PI</text>
    </g>

    <!-- Agents -->
    <g transform="translate(70, 210)">
      <rect x="-35" y="-16" width="70" height="32" rx="6" fill="url(#agentGrad)" stroke="#34d399" stroke-width="1.5"/>
      <text x="0" y="5" text-anchor="middle" font-family="system-ui, sans-serif" font-size="13" fill="#047857">Agent</text>
    </g>
    <g transform="translate(190, 210)">
      <rect x="-35" y="-16" width="70" height="32" rx="6" fill="url(#agentGrad)" stroke="#34d399" stroke-width="1.5"/>
      <text x="0" y="5" text-anchor="middle" font-family="system-ui, sans-serif" font-size="13" fill="#047857">Agent</text>
    </g>
    <g transform="translate(310, 210)">
      <rect x="-35" y="-16" width="70" height="32" rx="6" fill="url(#agentGrad)" stroke="#34d399" stroke-width="1.5"/>
      <text x="0" y="5" text-anchor="middle" font-family="system-ui, sans-serif" font-size="13" fill="#047857">Agent</text>
    </g>

    <!-- Resources -->
    <g transform="translate(70, 275)">
      <rect x="-35" y="-14" width="70" height="28" rx="5" fill="url(#resourceGrad)" stroke="#fb923c" stroke-width="1.5"/>
      <text x="0" y="4" text-anchor="middle" font-family="system-ui, sans-serif" font-size="12" fill="#c2410c">HPC</text>
    </g>
    <g transform="translate(190, 275)">
      <rect x="-35" y="-14" width="70" height="28" rx="5" fill="url(#resourceGrad)" stroke="#fb923c" stroke-width="1.5"/>
      <text x="0" y="4" text-anchor="middle" font-family="system-ui, sans-serif" font-size="12" fill="#c2410c">Storage</text>
    </g>
    <g transform="translate(310, 275)">
      <rect x="-40" y="-14" width="80" height="28" rx="5" fill="url(#resourceGrad)" stroke="#fb923c" stroke-width="1.5"/>
      <text x="0" y="4" text-anchor="middle" font-family="system-ui, sans-serif" font-size="12" fill="#c2410c">Instrument</text>
    </g>

    <!-- Delegation arrows (blue - authority flows down) -->
    <line x1="190" y1="101" x2="190" y2="129" stroke="#3b82f6" stroke-width="2" marker-end="url(#arrowBlue)"/>
    <text x="205" y="115" font-family="system-ui, sans-serif" font-size="9" fill="#3b82f6">{500K hrs, 100TB, 50 hrs}</text>

    <line x1="168" y1="161" x2="90" y2="194" stroke="#3b82f6" stroke-width="2" marker-end="url(#arrowBlue)"/>
    <text x="95" y="175" font-family="system-ui, sans-serif" font-size="9" fill="#3b82f6">50K hrs</text>

    <line x1="190" y1="161" x2="190" y2="194" stroke="#3b82f6" stroke-width="2" marker-end="url(#arrowBlue)"/>
    <text x="205" y="182" font-family="system-ui, sans-serif" font-size="9" fill="#3b82f6">10 TB</text>

    <line x1="212" y1="161" x2="290" y2="194" stroke="#3b82f6" stroke-width="2" marker-end="url(#arrowBlue)"/>
    <text x="270" y="175" font-family="system-ui, sans-serif" font-size="9" fill="#3b82f6">20 hrs</text>

    <!-- Agent to resource (dashed - usage) -->
    <line x1="70" y1="226" x2="70" y2="261" stroke="#94a3b8" stroke-width="1.5" stroke-dasharray="4,3" marker-end="url(#arrow)"/>
    <line x1="190" y1="226" x2="190" y2="261" stroke="#94a3b8" stroke-width="1.5" stroke-dasharray="4,3" marker-end="url(#arrow)"/>
    <line x1="310" y1="226" x2="310" y2="261" stroke="#94a3b8" stroke-width="1.5" stroke-dasharray="4,3" marker-end="url(#arrow)"/>
  </g>
</svg>